# xmcd CD database file
#
# Track frame offsets:
#	150
#	14232
#	29593
#	42964
#	58021
#	71832
#	90676
#	105346
#	120698
#	143902
#	163441
#	177738
#	189676
#	204261
#	218046
#	232736
#	245429
#	260494
#	272738
#	286658
#	300711
#	315866
#
# Disc length: 4389 seconds
#
# Revision: 0
# Processed by: cddbd v1.5.2PL0 Copyright (c) Steve Scherf et al.
# Submitted via: CDex 1.70beta2
#
DISCID=46112316
DTITLE=Coleman Hawkins - Jazz Roads CD133 - Swing - Coleman Hawkins Vol.4 (1943-44)
DYEAR=2006
DGENRE=Jazz
TTITLE0=Coleman Hawkins And His Orchestra - Voodte
TTITLE1=Coleman Hawkins And His Orchestra - How Deep Is The Ocean
TTITLE2=Coleman Hawkins And His Orchestra - Hawkins Barrel House
TTITLE3=Coleman Hawkins And His Orchestra - Stumpy
TTITLE4=Coleman Hawkins Quintet - Lover Come Back To Me
TTITLE5=Coleman Hawkins Quintet - Blues Changes
TTITLE6=Coleman Hawkins' Swing Four - Crazy Rhythm
TTITLE7=Coleman Hawkins' Swing Four - Get Happy
TTITLE8=Coleman Hawkins' Swing Four - The Man I Love
TTITLE9=Coleman Hawkins' Swing Four - Sweet Lorraine
TTITLE10=Coleman Hawkins Quintet  - I Only Have Eyes For You
TTITLE11=Coleman Hawkins Quintet  - S Wonderful
TTITLE12=Coleman Hawkins Quintet  - I'm In The Mood For Love
TTITLE13=Coleman Hawkins Quintet  - Bean' At The Met
TTITLE14=Coleman Hawkins Quartet - Flame Thrower
TTITLE15=Coleman Hawkins Quartet - Imagination
TTITLE16=Coleman Hawkins Quartet - Night And Day
TTITLE17=Coleman Hawkins Quartet - Cattin' At Keynote
TTITLE18=Auld+Hawkins+Webster Saxtet - Pick Up Boys
TTITLE19=Auld+Hawkins+Webster Saxtet - Porgy
TTITLE20=Auld+Hawkins+Webster Saxtet - Uptown Lullaby
TTITLE21=Auld+Hawkins+Webster Saxtet - Salt Peanuts
EXTD=YEAR: 2006
EXTT0=
EXTT1=
EXTT2=
EXTT3=
EXTT4=
EXTT5=
EXTT6=
EXTT7=
EXTT8=
EXTT9=
EXTT10=
EXTT11=
EXTT12=
EXTT13=
EXTT14=
EXTT15=
EXTT16=
EXTT17=
EXTT18=
EXTT19=
EXTT20=
EXTT21=
PLAYORDER=
